<svg width="214" height="47" viewBox="0 0 214 47" fill="none" xmlns="http://www.w3.org/2000/svg">
<path d="M6.71581 34.7942C6.20564 34.4517 5.8499 34.0764 5.62349 33.5721C5.41501 33.1077 5.31883 32.5396 5.30551 31.7979L4.41017 31.875L3.09127 33.1886H3.12797C3.12797 33.687 3.33468 34.2597 3.7144 34.8842C4.09352 35.5077 4.64128 36.1765 5.31413 36.8656C6.65974 38.2438 8.49896 39.6961 10.4696 41.0204C12.44 42.3446 14.5392 43.5391 16.4036 44.4022C18.2717 45.2672 19.8925 45.7939 20.9105 45.7939C21.417 45.7939 22.077 45.6585 22.8477 45.4097C23.6173 45.1613 24.4927 44.8013 25.4284 44.3557C27.2997 43.4644 29.4084 42.2325 31.3882 40.8708C33.3682 39.509 35.2169 38.0191 36.5697 36.6128C37.2461 35.9096 37.7969 35.229 38.1782 34.5972C38.5601 33.9643 38.768 33.3869 38.768 32.8884H38.7697L37.8988 31.8548L36.517 31.6129C36.517 32.4462 36.4229 33.0699 36.1974 33.5722C35.971 34.0765 35.6153 34.4519 35.1051 34.7943C34.597 35.1353 33.9322 35.446 33.0853 35.8198C32.9097 35.8973 32.7261 35.9776 32.5342 36.0615C31.799 36.383 30.9421 36.7577 29.9466 37.2332L29.945 37.234L29.9434 37.2346C28.5148 37.8362 26.6284 38.4255 25.0945 38.4462C24.3278 38.4565 23.6385 38.325 23.1391 37.9711C22.6501 37.6245 22.3532 37.0725 22.3361 36.2649C22.3356 36.241 22.336 36.217 22.3361 36.1927L22.3361 36.19L22.3361 21.9338H19.4849V36.1945C19.4849 36.2182 19.4854 36.2416 19.4849 36.2649C19.4677 37.0724 19.1708 37.6243 18.6818 37.9708C18.1824 38.3247 17.4931 38.4562 16.7264 38.4459C15.1926 38.4252 13.3061 37.8359 11.8776 37.2344L11.8759 37.2337L11.8743 37.2329C10.8787 36.7574 10.022 36.3828 9.28673 36.0613C9.09485 35.9774 8.91124 35.8971 8.7356 35.8196C7.88868 35.4458 7.22388 35.1352 6.71581 34.7942Z" fill="white"/>
<path d="M40.0557 28.1203L33.7103 30.97L37.9784 31.7164L40.7986 35.0635L40.0557 28.1203Z" fill="white"/>
<path d="M5.30389 31.6129H5.45395L5.45397 31.6345L8.65992 31.3587L2.58678 27.9662L1.24176 34.8189L4.34294 31.7301L5.30394 31.6474L5.30389 31.6129Z" fill="white"/>
<path d="M19.3348 21.7838V18.9326H13.498C13.7273 19.3566 13.8575 19.8422 13.8575 20.3582C13.8575 20.8741 13.7273 21.3597 13.498 21.7838H19.3348Z" fill="white"/>
<path d="M22.3361 18.9326H19.4849V21.7838H22.3361V18.9326Z" fill="white"/>
<path d="M19.0022 15.8176C19.0309 15.8568 19.0589 15.895 19.087 15.9355C19.1751 16.0627 19.2535 16.2004 19.331 16.4328C19.4548 16.8043 19.4849 17.3039 19.4849 17.507V18.7825H22.3361V17.507C22.3361 17.3018 22.3826 16.7978 22.5749 16.4223C22.7457 16.0888 22.9285 15.9093 23.1428 15.6987L23.1877 15.6545C22.4695 15.883 21.7044 16.0063 20.9105 16.0063C20.2327 16.0063 19.5759 15.9165 18.9514 15.748C18.9687 15.7719 18.9855 15.7949 19.0022 15.8176Z" fill="white"/>
<path fill-rule="evenodd" clip-rule="evenodd" d="M20.9105 15.8563C24.9715 15.8563 28.2636 12.5642 28.2636 8.50316C28.2636 4.44216 24.9715 1.15006 20.9105 1.15006C16.8495 1.15006 13.5574 4.44216 13.5574 8.50316C13.5574 11.8176 15.7503 14.6199 18.7645 15.5382L18.7989 15.5175C18.8067 15.5306 18.8144 15.5432 18.822 15.5554C19.484 15.7512 20.185 15.8563 20.9105 15.8563ZM20.9105 14.2056C24.0598 14.2056 26.6129 11.6525 26.6129 8.50316C26.6129 5.35381 24.0598 2.80076 20.9105 2.80076C17.7611 2.80076 15.2081 5.35381 15.2081 8.50316C15.2081 11.6525 17.7611 14.2056 20.9105 14.2056Z" fill="white"/>
<path d="M13.7074 20.3582C13.7074 21.9328 12.4309 23.2094 10.8562 23.2094C9.28155 23.2094 8.00503 21.9328 8.00503 20.3582C8.00503 18.7835 9.28155 17.507 10.8562 17.507C12.4309 17.507 13.7074 18.7835 13.7074 20.3582Z" fill="white"/>
<path d="M33.8159 20.3582C33.8159 21.9328 32.5394 23.2094 30.9647 23.2094C29.39 23.2094 28.1135 21.9328 28.1135 20.3582C28.1135 18.7835 29.39 17.507 30.9647 17.507C32.5394 17.507 33.8159 18.7835 33.8159 20.3582Z" fill="white"/>
<path d="M22.4861 18.9326V21.7838H28.323C28.0936 21.3597 27.9634 20.8741 27.9634 20.3582C27.9634 19.8422 28.0936 19.3566 28.323 18.9326H22.4861Z" fill="white"/>
<path fill-rule="evenodd" clip-rule="evenodd" d="M54.0802 13.344C57.8989 13.344 60.7362 14.304 62.5922 16.224C64.4482 18.1227 65.3762 20.8534 65.3762 24.416C65.3762 26.7414 64.9176 28.7787 64.0002 30.528C63.1042 32.256 61.7922 33.6 60.0642 34.56C58.3362 35.52 56.2456 36 53.7922 36C53.4722 36 53.0456 35.9894 52.5122 35.968C51.9789 35.9467 51.4242 35.936 50.8482 35.936C50.2936 35.9147 49.7816 35.904 49.3122 35.904C48.5656 35.904 47.8296 35.9147 47.1042 35.936C46.3789 35.936 45.7922 35.9574 45.3442 36V35.36C46.0696 35.3174 46.6136 35.232 46.9762 35.104C47.3602 34.976 47.6162 34.72 47.7442 34.336C47.8722 33.952 47.9362 33.376 47.9362 32.608V16.736C47.9362 15.9467 47.8722 15.3707 47.7442 15.008C47.6162 14.624 47.3602 14.368 46.9762 14.24C46.6136 14.0907 46.0696 14.0054 45.3442 13.984V13.344C45.7922 13.3654 46.3789 13.3974 47.1042 13.44C47.8296 13.4614 48.5442 13.4614 49.2482 13.44C49.9949 13.4187 50.8376 13.3974 51.7762 13.376C52.7149 13.3547 53.4829 13.344 54.0802 13.344ZM51.3602 14.464C51.6589 14.1014 52.2989 13.92 53.2802 13.92C55.4989 13.92 57.2482 14.3147 58.5282 15.104C59.8296 15.872 60.7576 17.0454 61.3122 18.624C61.8882 20.1814 62.1762 22.1547 62.1762 24.544C62.1762 26.8694 61.9202 28.8427 61.4082 30.464C60.8962 32.0854 60.0002 33.3227 58.7202 34.176C57.4402 35.008 55.6376 35.424 53.3122 35.424C52.3309 35.424 51.6802 35.2427 51.3602 34.88C51.0616 34.5174 50.9122 33.7814 50.9122 32.672V16.672C50.9122 15.5627 51.0616 14.8267 51.3602 14.464Z" fill="white"/>
<path d="M73.3652 19.168V33.024C73.3652 33.92 73.5466 34.528 73.9092 34.848C74.2932 35.168 74.9226 35.328 75.7972 35.328V36C75.4346 35.9787 74.8799 35.9574 74.1332 35.936C73.4079 35.8934 72.6719 35.872 71.9252 35.872C71.1999 35.872 70.4639 35.8934 69.7172 35.936C68.9706 35.9574 68.4159 35.9787 68.0532 36V35.328C68.9279 35.328 69.5466 35.168 69.9092 34.848C70.2932 34.528 70.4852 33.92 70.4852 33.024V23.008C70.4852 22.048 70.3146 21.344 69.9732 20.896C69.6319 20.4267 68.9919 20.192 68.0532 20.192V19.52C68.7359 19.584 69.3972 19.616 70.0372 19.616C70.6559 19.616 71.2426 19.584 71.7972 19.52C72.3732 19.4347 72.8959 19.3174 73.3652 19.168Z" fill="white"/>
<path d="M92.0522 20.16V19.52C91.7109 19.5414 91.3376 19.5627 90.9322 19.584C90.5482 19.6054 90.1109 19.616 89.6202 19.616H88.7242C88.4682 19.5947 88.2016 19.584 87.9242 19.584C87.6469 19.5627 87.3162 19.5414 86.9322 19.52V20.16C87.7002 20.2027 88.2656 20.3307 88.6282 20.544C89.0122 20.7574 89.2256 21.0774 89.2682 21.504C89.3322 21.9094 89.2256 22.464 88.9482 23.168L85.4248 32.4093L85.4922 32.576L85.3002 32.736L85.4248 32.4093L81.4922 22.688C81.1722 21.856 81.0656 21.2694 81.1722 20.928C81.3002 20.5867 81.5669 20.384 81.9722 20.32C82.3989 20.2347 82.8789 20.192 83.4122 20.192V19.52C82.7722 19.5627 82.0789 19.5947 81.3322 19.616C80.6069 19.6374 79.9136 19.648 79.2522 19.648C78.7189 19.648 78.2176 19.6374 77.7482 19.616C77.3002 19.5734 76.8629 19.5414 76.4362 19.52V20.192C76.6709 20.192 76.9482 20.288 77.2682 20.48C77.6096 20.6507 77.9509 21.152 78.2922 21.984L84.1802 36.16H84.4682H84.7242L89.9722 22.4C90.2709 21.5894 90.5909 21.024 90.9322 20.704C91.2736 20.384 91.6469 20.2027 92.0522 20.16Z" fill="white"/>
<path d="M98.3965 19.168V33.024C98.3965 33.92 98.5778 34.528 98.9405 34.848C99.3245 35.168 99.9538 35.328 100.828 35.328V36C100.466 35.9787 99.9112 35.9574 99.1645 35.936C98.4392 35.8934 97.7032 35.872 96.9565 35.872C96.2312 35.872 95.4952 35.8934 94.7485 35.936C94.0018 35.9574 93.4472 35.9787 93.0845 36V35.328C93.9592 35.328 94.5778 35.168 94.9405 34.848C95.3245 34.528 95.5165 33.92 95.5165 33.024V23.008C95.5165 22.048 95.3458 21.344 95.0045 20.896C94.6632 20.4267 94.0232 20.192 93.0845 20.192V19.52C93.7672 19.584 94.4285 19.616 95.0685 19.616C95.6872 19.616 96.2738 19.584 96.8285 19.52C97.4045 19.4347 97.9272 19.3174 98.3965 19.168Z" fill="white"/>
<path d="M113.211 19.072C114.022 19.072 114.694 19.1787 115.227 19.392C115.782 19.6054 116.241 19.904 116.603 20.288C117.009 20.7147 117.297 21.248 117.467 21.888C117.638 22.528 117.723 23.392 117.723 24.48V33.024C117.723 33.92 117.905 34.528 118.267 34.848C118.651 35.168 119.281 35.328 120.155 35.328V36C119.793 35.9787 119.238 35.9574 118.491 35.936C117.745 35.8934 117.019 35.872 116.315 35.872C115.611 35.872 114.918 35.8934 114.235 35.936C113.574 35.9574 113.073 35.9787 112.731 36V35.328C113.499 35.328 114.043 35.168 114.363 34.848C114.683 34.528 114.843 33.92 114.843 33.024V23.776C114.843 23.1147 114.79 22.5067 114.683 21.952C114.577 21.3974 114.331 20.9494 113.947 20.608C113.585 20.2667 113.019 20.096 112.251 20.096C111.355 20.096 110.566 20.352 109.883 20.864C109.222 21.376 108.699 22.08 108.315 22.976C107.953 23.8507 107.771 24.832 107.771 25.92V33.024C107.771 33.92 107.931 34.528 108.251 34.848C108.571 35.168 109.115 35.328 109.883 35.328V36C109.542 35.9787 109.03 35.9574 108.347 35.936C107.686 35.8934 107.003 35.872 106.299 35.872C105.595 35.872 104.87 35.8934 104.123 35.936C103.377 35.9574 102.822 35.9787 102.459 36V35.328C103.334 35.328 103.953 35.168 104.315 34.848C104.699 34.528 104.891 33.92 104.891 33.024V23.008C104.891 22.048 104.721 21.344 104.379 20.896C104.038 20.4267 103.398 20.192 102.459 20.192V19.52C103.142 19.584 103.803 19.616 104.443 19.616C105.062 19.616 105.649 19.584 106.203 19.52C106.779 19.4347 107.302 19.3174 107.771 19.168V22.944C108.326 21.4934 109.094 20.4907 110.075 19.936C111.078 19.36 112.123 19.072 113.211 19.072Z" fill="white"/>
<path fill-rule="evenodd" clip-rule="evenodd" d="M127.417 28.608L127.801 28.896C127.621 28.9914 127.446 29.0874 127.278 29.184L127.289 29.184C128.355 29.184 129.305 29.0134 130.137 28.672C130.99 28.3094 131.662 27.7547 132.153 27.008C132.643 26.2614 132.889 25.3014 132.889 24.128C132.889 22.9644 132.647 22.0107 132.165 21.2667C132.073 21.4118 131.984 21.5656 131.897 21.728L131.321 21.504C131.433 21.2315 131.575 20.9711 131.748 20.7226C131.312 20.2403 130.775 19.8714 130.137 19.616C129.305 19.2534 128.355 19.072 127.289 19.072C126.243 19.072 125.294 19.2534 124.441 19.616C123.587 19.9574 122.915 20.5014 122.425 21.248C121.934 21.9947 121.689 22.9547 121.689 24.128C121.689 25.3014 121.934 26.2614 122.425 27.008C122.915 27.7547 123.587 28.3094 124.441 28.672C125.021 28.9042 125.646 29.0574 126.315 29.1317C126.651 28.9578 127.019 28.7832 127.417 28.608ZM129.177 27.648C128.729 28.288 128.099 28.608 127.289 28.608C126.499 28.608 125.87 28.288 125.401 27.648C124.931 27.008 124.697 25.8347 124.697 24.128C124.697 22.4214 124.931 21.248 125.401 20.608C125.87 19.968 126.499 19.648 127.289 19.648C128.099 19.648 128.729 19.968 129.177 20.608C129.646 21.248 129.881 22.4214 129.881 24.128C129.881 25.8347 129.646 27.008 129.177 27.648Z" fill="white"/>
<path d="M123.929 41.664C124.931 41.8987 125.998 42.016 127.129 42.016C129.006 42.016 130.574 41.7387 131.833 41.184C133.113 40.6507 134.073 39.9467 134.713 39.072C135.353 38.1974 135.673 37.2587 135.673 36.256C135.673 35.36 135.438 34.6347 134.969 34.08C134.499 33.5254 133.881 33.12 133.113 32.864C132.366 32.608 131.545 32.48 130.649 32.48H126.649C125.625 32.48 125.113 32.1387 125.113 31.456C125.113 30.9227 125.379 30.464 125.913 30.08C126.314 29.7753 126.769 29.4767 127.278 29.184C126.948 29.1837 126.627 29.1662 126.315 29.1317C125.301 29.6565 124.569 30.1753 124.121 30.688C123.523 31.3494 123.225 32.0427 123.225 32.768C123.225 33.472 123.427 33.9947 123.833 34.336C124.238 34.6774 124.761 34.9014 125.401 35.008C126.041 35.1147 126.702 35.168 127.385 35.168H129.753C131.225 35.168 132.206 35.4027 132.697 35.872C133.209 36.32 133.465 36.896 133.465 37.6C133.465 38.5387 133.166 39.296 132.569 39.872C131.971 40.448 131.214 40.8534 130.297 41.088C129.379 41.344 128.441 41.472 127.481 41.472C126.03 41.472 124.846 41.2054 123.929 40.672C123.033 40.16 122.585 39.4134 122.585 38.432C122.585 37.8774 122.723 37.376 123.001 36.928C123.278 36.48 123.651 36.1814 124.121 36.032L123.929 35.52C122.905 35.7974 122.094 36.2027 121.497 36.736C120.899 37.2694 120.601 37.9094 120.601 38.656C120.601 39.424 120.899 40.0534 121.497 40.544C122.115 41.056 122.926 41.4294 123.929 41.664Z" fill="white"/>
<path d="M135.129 18.752C134.339 18.752 133.582 19.0294 132.857 19.584C132.404 19.9303 132.034 20.3098 131.748 20.7226C131.894 20.8849 132.029 21.06 132.153 21.248L132.165 21.2667C132.411 20.8783 132.673 20.5521 132.953 20.288C133.253 19.9881 133.709 19.7011 134.321 19.4272C134.362 19.3224 134.408 19.2146 134.457 19.104L134.873 19.2C134.677 19.2747 134.493 19.3505 134.321 19.4272C134.076 20.0504 133.972 20.572 134.009 20.992C134.051 21.4827 134.211 21.8454 134.489 22.08C134.766 22.2934 135.065 22.4 135.385 22.4C135.747 22.4 136.099 22.272 136.441 22.016C136.803 21.7387 136.985 21.2694 136.985 20.608C136.985 19.9894 136.814 19.5307 136.473 19.232C136.131 18.912 135.683 18.752 135.129 18.752Z" fill="white"/>
<path fill-rule="evenodd" clip-rule="evenodd" d="M150.205 14.344C154.024 14.344 156.861 15.304 158.717 17.224C160.573 19.1227 161.501 21.8534 161.501 25.416C161.501 27.7414 161.043 29.7787 160.125 31.528C159.229 33.256 157.917 34.6 156.189 35.56C154.461 36.52 152.371 37 149.917 37C149.597 37 149.171 36.9894 148.637 36.968C148.104 36.9467 147.549 36.936 146.973 36.936C146.419 36.9147 145.907 36.904 145.437 36.904C144.691 36.904 143.955 36.9147 143.229 36.936C142.504 36.936 141.917 36.9574 141.469 37V36.36C142.195 36.3174 142.739 36.232 143.101 36.104C143.485 35.976 143.741 35.72 143.869 35.336C143.997 34.952 144.061 34.376 144.061 33.608V17.736C144.061 16.9467 143.997 16.3707 143.869 16.008C143.741 15.624 143.485 15.368 143.101 15.24C142.739 15.0907 142.195 15.0054 141.469 14.984V14.344C141.917 14.3654 142.504 14.3974 143.229 14.44C143.955 14.4614 144.669 14.4614 145.373 14.44C146.12 14.4187 146.963 14.3974 147.901 14.376C148.84 14.3547 149.608 14.344 150.205 14.344ZM147.485 15.464C147.784 15.1014 148.424 14.92 149.405 14.92C151.624 14.92 153.373 15.3147 154.653 16.104C155.955 16.872 156.883 18.0454 157.437 19.624C158.013 21.1814 158.301 23.1547 158.301 25.544C158.301 27.8694 158.045 29.8427 157.533 31.464C157.021 33.0854 156.125 34.3227 154.845 35.176C153.565 36.008 151.763 36.424 149.437 36.424C148.456 36.424 147.805 36.2427 147.485 35.88C147.187 35.5174 147.037 34.7814 147.037 33.672V17.672C147.037 16.5627 147.187 15.8267 147.485 15.464Z" fill="white"/>
<path d="M176.338 21.8C175.293 20.648 173.832 20.072 171.954 20.072C170.504 20.072 169.234 20.4454 168.146 21.192C167.058 21.9174 166.216 22.9627 165.618 24.328C165.021 25.672 164.722 27.2827 164.722 29.16C164.722 30.7814 165.01 32.2214 165.586 33.48C166.184 34.7174 167.026 35.688 168.114 36.392C169.224 37.096 170.546 37.448 172.082 37.448C173.149 37.448 174.088 37.2454 174.898 36.84C175.709 36.4134 176.381 35.8694 176.914 35.208C177.448 34.5467 177.832 33.864 178.066 33.16L177.426 32.904C177.064 33.6934 176.637 34.3227 176.146 34.792C175.656 35.2614 175.122 35.6027 174.546 35.816C173.97 36.008 173.362 36.104 172.722 36.104C171.912 36.104 171.122 35.8374 170.354 35.304C169.608 34.7494 169 33.9494 168.53 32.904C168.061 31.8587 167.826 30.6107 167.826 29.16C167.826 28.776 167.837 28.392 167.858 28.008C167.876 27.687 167.901 27.3883 167.934 27.112H166.642L166.61 26.504H167.883C168.054 24.5343 168.493 23.0836 169.202 22.152C169.97 21.1707 170.845 20.68 171.826 20.68C172.552 20.68 173.138 20.9467 173.586 21.48C174.056 22.0134 174.397 22.728 174.61 23.624C174.824 24.4987 174.909 25.4587 174.866 26.504H167.883C167.874 26.6092 167.866 26.7159 167.858 26.824L167.954 26.952C167.947 27.0045 167.941 27.0578 167.934 27.112H177.938C177.938 24.7014 177.405 22.9307 176.338 21.8Z" fill="white"/>
<path d="M192.526 21.8C191.48 20.648 190.019 20.072 188.142 20.072C186.691 20.072 185.422 20.4454 184.334 21.192C183.246 21.9174 182.403 22.9627 181.806 24.328C181.208 25.672 180.91 27.2827 180.91 29.16C180.91 30.7814 181.198 32.2214 181.774 33.48C182.371 34.7174 183.214 35.688 184.302 36.392C185.411 37.096 186.734 37.448 188.27 37.448C189.336 37.448 190.275 37.2454 191.086 36.84C191.896 36.4134 192.568 35.8694 193.102 35.208C193.635 34.5467 194.019 33.864 194.254 33.16L193.614 32.904C193.251 33.6934 192.824 34.3227 192.334 34.792C191.843 35.2614 191.31 35.6027 190.734 35.816C190.158 36.008 189.55 36.104 188.91 36.104C188.099 36.104 187.31 35.8374 186.542 35.304C185.795 34.7494 185.187 33.9494 184.718 32.904C184.248 31.8587 184.014 30.6107 184.014 29.16C184.014 28.776 184.024 28.392 184.046 28.008C184.064 27.687 184.089 27.3883 184.122 27.112H182.83L182.798 26.504H184.071C184.241 24.5343 184.681 23.0836 185.39 22.152C186.158 21.1707 187.032 20.68 188.014 20.68C188.739 20.68 189.326 20.9467 189.774 21.48C190.243 22.0134 190.584 22.728 190.798 23.624C191.011 24.4987 191.096 25.4587 191.054 26.504H184.071C184.062 26.6092 184.053 26.7159 184.046 26.824L184.142 26.952C184.135 27.0045 184.128 27.0578 184.122 27.112H194.126C194.126 24.7014 193.592 22.9307 192.526 21.8Z" fill="white"/>
<path d="M202.441 41.64C201.908 41.3414 201.641 40.7334 201.641 39.816V35.7028C201.496 35.4962 201.378 35.2779 201.289 35.048L201.609 34.6C201.62 34.621 201.63 34.6419 201.641 34.6627V25.0596C201.549 25.4296 201.474 25.8258 201.417 26.248L201.033 25.8C201.145 24.9394 201.347 24.1701 201.641 23.4921V20.168C201.172 20.3174 200.649 20.4347 200.073 20.52C199.519 20.584 198.932 20.616 198.313 20.616C197.673 20.616 197.012 20.584 196.329 20.52V21.192C197.268 21.192 197.908 21.4267 198.249 21.896C198.591 22.344 198.761 23.048 198.761 24.008V40.136C198.761 40.904 198.601 41.4267 198.281 41.704C197.961 41.9814 197.417 42.12 196.649 42.12V42.792C196.991 42.7707 197.481 42.7387 198.121 42.696C198.783 42.6747 199.444 42.664 200.105 42.664C201.044 42.664 201.929 42.6747 202.761 42.696C203.593 42.7387 204.244 42.7707 204.713 42.792V42.12C203.753 42.12 202.996 41.96 202.441 41.64Z" fill="white"/>
<path d="M209.801 21C208.905 20.3814 207.892 20.072 206.761 20.072C205.289 20.072 204.02 20.5734 202.953 21.576C202.404 22.1028 201.967 22.7415 201.641 23.4921V25.0596C201.933 23.8966 202.402 22.9914 203.049 22.344C203.903 21.4694 204.852 21.032 205.897 21.032C206.708 21.032 207.391 21.2987 207.945 21.832C208.5 22.3654 208.916 23.176 209.193 24.264C209.471 25.352 209.609 26.7494 209.609 28.456C209.609 29.9707 209.471 31.3574 209.193 32.616C208.937 33.8534 208.479 34.8454 207.817 35.592C207.156 36.3387 206.228 36.712 205.033 36.712C204.18 36.712 203.465 36.5094 202.889 36.104C202.354 35.7129 201.938 35.2325 201.641 34.6627V35.7028C201.915 36.0907 202.288 36.4378 202.761 36.744C203.508 37.2134 204.383 37.448 205.385 37.448C206.687 37.448 207.796 37.1814 208.713 36.648C209.652 36.0934 210.409 35.368 210.985 34.472C211.583 33.5547 212.02 32.5414 212.297 31.432C212.575 30.3014 212.713 29.16 212.713 28.008C212.713 26.28 212.447 24.8294 211.913 23.656C211.401 22.4827 210.697 21.5974 209.801 21Z" fill="white"/>
<path d="M84.7242 36.16L89.9722 22.4C90.2709 21.5894 90.5909 21.024 90.9322 20.704C91.2736 20.384 91.6469 20.2027 92.0522 20.16V19.52C91.7109 19.5414 91.3376 19.5627 90.9322 19.584C90.5482 19.6054 90.1109 19.616 89.6202 19.616M84.7242 36.16C84.6389 36.16 84.5536 36.16 84.4682 36.16M84.7242 36.16H84.4682M84.4682 36.16C84.3829 36.16 84.2869 36.16 84.1802 36.16M84.4682 36.16H84.1802M84.1802 36.16L78.2922 21.984C77.9509 21.152 77.6096 20.6507 77.2682 20.48C76.9482 20.288 76.6709 20.192 76.4362 20.192V19.52C76.8629 19.5414 77.3002 19.5734 77.7482 19.616C78.2176 19.6374 78.7189 19.648 79.2522 19.648C79.9136 19.648 80.6069 19.6374 81.3322 19.616C82.0789 19.5947 82.7722 19.5627 83.4122 19.52V20.192C82.8789 20.192 82.3989 20.2347 81.9722 20.32C81.5669 20.384 81.3002 20.5867 81.1722 20.928C81.0656 21.2694 81.1722 21.856 81.4922 22.688L85.4248 32.4093M88.7242 19.616C88.4682 19.5947 88.2016 19.584 87.9242 19.584C87.6469 19.5627 87.3162 19.5414 86.9322 19.52V20.16C87.7002 20.2027 88.2656 20.3307 88.6282 20.544C89.0122 20.7574 89.2256 21.0774 89.2682 21.504C89.3322 21.9094 89.2256 22.464 88.9482 23.168L85.4248 32.4093M88.7242 19.616C89.0016 19.616 89.3002 19.616 89.6202 19.616M88.7242 19.616H89.6202M127.289 29.184C128.355 29.184 129.305 29.0134 130.137 28.672C130.99 28.3094 131.662 27.7547 132.153 27.008C132.643 26.2614 132.889 25.3014 132.889 24.128C132.889 22.9644 132.647 22.0107 132.165 21.2667M127.289 29.184C127.285 29.184 127.282 29.184 127.278 29.184M127.289 29.184L127.278 29.184M132.153 21.248C132.029 21.06 131.894 20.8849 131.748 20.7226M132.153 21.248C132.157 21.2542 132.161 21.2604 132.165 21.2667M132.153 21.248L132.165 21.2667M19.4849 36.2649C19.4677 37.0724 19.1708 37.6243 18.6818 37.9708C18.1824 38.3247 17.4931 38.4562 16.7264 38.4459C15.1926 38.4252 13.3061 37.8359 11.8776 37.2344L11.8759 37.2337L11.8743 37.2329C10.8787 36.7574 10.022 36.3828 9.28673 36.0613C9.09485 35.9774 8.91124 35.8971 8.7356 35.8196C7.88868 35.4458 7.22388 35.1352 6.71581 34.7942C6.20564 34.4517 5.8499 34.0764 5.62349 33.5721C5.41501 33.1077 5.31883 32.5396 5.30551 31.7979M19.4849 36.2649H19.3348V21.7838M19.4849 36.2649C19.4854 36.2416 19.4849 36.2182 19.4849 36.1945M19.4849 36.2649V36.1945M23.1428 15.6987C22.9285 15.9093 22.7457 16.0888 22.5749 16.4223C22.3826 16.7978 22.3361 17.3018 22.3361 17.507V18.7825M23.1428 15.6987C23.1576 15.6841 23.1726 15.6694 23.1877 15.6545M23.1428 15.6987L23.1877 15.6545M22.3361 36.2649C22.3532 37.0725 22.6501 37.6245 23.1391 37.9711C23.6385 38.325 24.3278 38.4565 25.0945 38.4462C26.6284 38.4255 28.5148 37.8362 29.9434 37.2346L29.945 37.234L29.9466 37.2332C30.9421 36.7577 31.799 36.383 32.5342 36.0615C32.7261 35.9776 32.9097 35.8973 33.0853 35.8198C33.9322 35.446 34.597 35.1353 35.1051 34.7943C35.6153 34.4519 35.971 34.0765 36.1974 33.5722C36.4229 33.0699 36.517 32.4462 36.517 31.6129M22.3361 36.2649H22.4861V21.7838M22.3361 36.2649V36.1927M22.3361 36.2649C22.3356 36.241 22.336 36.217 22.3361 36.1927M5.45395 31.6129H5.30389M5.45395 31.6129C5.45395 31.6201 5.45396 31.6273 5.45397 31.6345M5.45395 31.6129L5.45397 31.6345M5.30389 31.6129C5.30389 31.6245 5.30391 31.636 5.30394 31.6474M5.30389 31.6129L5.30394 31.6474M36.517 31.6129H36.367C36.367 32.4371 36.2735 33.0363 36.0605 33.5107C35.8485 33.9831 35.5149 34.3385 35.0215 34.6697C34.526 35.0023 33.8731 35.3081 33.0247 35.6825C32.8498 35.7597 32.6666 35.8398 32.475 35.9236C31.74 36.245 30.8809 36.6207 29.8835 37.097C28.4611 37.6958 26.5968 38.2759 25.0925 38.2962C24.3397 38.3063 23.6878 38.1761 23.2259 37.8487C22.7686 37.5246 22.4861 36.9991 22.4861 36.19H22.3361M36.517 31.6129L37.8988 31.8548L38.7697 32.8884M36.517 31.6129L33.2025 31.0336L40.1829 27.8986L41 35.5355L38.7697 32.8884M22.3361 36.19L22.3361 21.9338M22.3361 36.19L22.3361 36.1927M19.4849 21.9338H22.3361M19.4849 21.9338H13.4073V21.7838H13.498M19.4849 21.9338V21.7838M19.4849 21.9338V36.1945M5.30551 31.7979L4.41017 31.875L3.09127 33.1886M5.30551 31.7979L9.16021 31.4663L2.47937 27.7343L1 35.2714L3.09127 33.1886M5.30551 31.7979C5.30462 31.7485 5.3041 31.6984 5.30394 31.6474M3.09127 33.1886H3.12797C3.12797 33.687 3.33468 34.2597 3.7144 34.8842C4.09352 35.5077 4.64128 36.1765 5.31413 36.8656C6.65974 38.2438 8.49896 39.6961 10.4696 41.0204C12.44 42.3446 14.5392 43.5391 16.4036 44.4022C18.2717 45.2672 19.8925 45.7939 20.9105 45.7939C21.417 45.7939 22.077 45.6585 22.8477 45.4097C23.6173 45.1613 24.4927 44.8013 25.4284 44.3557C27.2997 43.4644 29.4084 42.2325 31.3882 40.8708C33.3682 39.509 35.2169 38.0191 36.5697 36.6128C37.2461 35.9096 37.7969 35.229 38.1782 34.5972C38.5601 33.9643 38.768 33.3869 38.768 32.8884H38.7697M3.09127 33.1886H2.97791C2.97791 33.7261 3.19976 34.3266 3.58618 34.9621C3.97321 35.5987 4.52921 36.2766 5.20676 36.9705C6.56196 38.3584 8.41014 39.8172 10.3859 41.145C12.3619 42.4729 14.4681 43.6715 16.3405 44.5384C18.2092 45.4036 19.8565 45.9439 20.9105 45.9439C21.4399 45.9439 22.1172 45.8032 22.8938 45.5525C23.6714 45.3015 24.5532 44.9387 25.4929 44.4912C27.3724 43.5961 29.4879 42.3599 31.4732 40.9944C33.4583 39.6291 35.3158 38.1329 36.6779 36.7168C37.3589 36.0089 37.9177 35.3193 38.3067 34.6747C38.695 34.0312 38.918 33.426 38.918 32.8884H38.7697M22.3361 21.9338H28.4136V21.7838H28.323M22.3361 21.9338V21.7838M22.3361 21.9338V36.1927M22.3361 18.9326H19.4849M22.3361 18.9326V21.7838M22.3361 18.9326H22.4861M22.3361 18.9326V18.7825M19.4849 18.9326V21.7838M19.4849 18.9326H19.3348M19.4849 18.9326V18.7825M19.4849 21.7838H22.3361M19.4849 21.7838H19.3348M22.3361 21.7838H22.4861M19.3348 21.7838V18.9326M19.3348 21.7838H13.498M19.3348 18.9326H13.498M19.3348 18.9326V17.507C19.3348 17.3098 19.3049 16.829 19.1886 16.4802C19.116 16.2625 19.0443 16.1375 18.9636 16.0209C18.9394 15.9859 18.9134 15.9504 18.8858 15.9128C18.8221 15.8259 18.7497 15.7273 18.6702 15.5947L18.7645 15.5382M13.498 18.9326C13.7273 19.3566 13.8575 19.8422 13.8575 20.3582C13.8575 20.8741 13.7273 21.3597 13.498 21.7838M13.498 18.9326C12.9905 17.9943 11.9978 17.3569 10.8562 17.3569C9.19868 17.3569 7.85496 18.7006 7.85496 20.3582C7.85496 22.0157 9.19868 23.3594 10.8562 23.3594C11.9978 23.3594 12.9905 22.7221 13.498 21.7838M13.498 18.9326H13.4073V18.7825H19.4849M22.4861 18.9326V21.7838M22.4861 18.9326H28.323M22.4861 18.9326V17.507C22.4861 17.312 22.5318 16.8355 22.7085 16.4907C22.8676 16.1801 23.028 16.0225 23.2351 15.8191C23.3201 15.7357 23.4129 15.6445 23.5167 15.532L23.4064 15.4302C23.3298 15.5133 23.2571 15.5861 23.1877 15.6545M22.4861 21.7838H28.323M28.323 21.7838C28.0936 21.3597 27.9634 20.8741 27.9634 20.3582C27.9634 19.8422 28.0936 19.3566 28.323 18.9326M28.323 21.7838C28.8304 22.7221 29.8231 23.3594 30.9647 23.3594C32.6223 23.3594 33.966 22.0157 33.966 20.3582C33.966 18.7006 32.6223 17.3569 30.9647 17.3569C29.8231 17.3569 28.8304 17.9943 28.323 18.9326M28.323 18.9326H28.4136V18.7825H22.3361M23.1877 15.6545C22.4695 15.883 21.7044 16.0063 20.9105 16.0063C20.2327 16.0063 19.5759 15.9165 18.9514 15.748M23.1877 15.6545C26.2182 14.6903 28.4136 11.8531 28.4136 8.50316C28.4136 4.35928 25.0543 1 20.9105 1C16.7666 1 13.4073 4.35928 13.4073 8.50316C13.4073 11.9693 15.7576 14.8865 18.9514 15.748M18.9514 15.748C18.9687 15.7719 18.9855 15.7949 19.0022 15.8176C19.0309 15.8568 19.0589 15.895 19.087 15.9355C19.1751 16.0627 19.2535 16.2004 19.331 16.4328C19.4548 16.8043 19.4849 17.3039 19.4849 17.507V18.7825M18.9514 15.748C18.911 15.6918 18.8684 15.6304 18.822 15.5554M19.4849 18.7825H22.3361M19.4849 36.1945L19.4849 36.1898H19.3348C19.3348 36.9989 19.0524 37.5243 18.595 37.8484C18.1331 38.1758 17.4812 38.306 16.7285 38.2959C15.2241 38.2756 13.3598 37.6955 11.9374 37.0968C10.94 36.6204 10.0809 36.2448 9.34591 35.9234C9.15432 35.8396 8.97117 35.7595 8.79619 35.6823C7.94786 35.3079 7.29492 35.0021 6.79944 34.6696C6.30606 34.3384 5.97245 33.983 5.76039 33.5106C5.54929 33.0404 5.4556 32.4476 5.45397 31.6345M18.7645 15.5382C15.7503 14.6199 13.5574 11.8176 13.5574 8.50316C13.5574 4.44216 16.8495 1.15006 20.9105 1.15006C24.9715 1.15006 28.2636 4.44216 28.2636 8.50316C28.2636 12.5642 24.9715 15.8563 20.9105 15.8563C20.185 15.8563 19.484 15.7512 18.822 15.5554M18.7645 15.5382L18.7989 15.5175C18.8067 15.5306 18.8144 15.5432 18.822 15.5554M18.7645 15.5382C18.7836 15.544 18.8028 15.5498 18.822 15.5554M85.4248 32.4093L85.4922 32.576L85.3002 32.736L85.4248 32.4093ZM127.278 29.184C126.769 29.4767 126.314 29.7753 125.913 30.08C125.379 30.464 125.113 30.9227 125.113 31.456C125.113 32.1387 125.625 32.48 126.649 32.48H130.649C131.545 32.48 132.366 32.608 133.113 32.864C133.881 33.12 134.499 33.5254 134.969 34.08C135.438 34.6347 135.673 35.36 135.673 36.256C135.673 37.2587 135.353 38.1974 134.713 39.072C134.073 39.9467 133.113 40.6507 131.833 41.184C130.574 41.7387 129.006 42.016 127.129 42.016C125.998 42.016 124.931 41.8987 123.929 41.664C122.926 41.4294 122.115 41.056 121.497 40.544C120.899 40.0534 120.601 39.424 120.601 38.656C120.601 37.9094 120.899 37.2694 121.497 36.736C122.094 36.2027 122.905 35.7974 123.929 35.52L124.121 36.032C123.651 36.1814 123.278 36.48 123.001 36.928C122.723 37.376 122.585 37.8774 122.585 38.432C122.585 39.4134 123.033 40.16 123.929 40.672C124.846 41.2054 126.03 41.472 127.481 41.472C128.441 41.472 129.379 41.344 130.297 41.088C131.214 40.8534 131.971 40.448 132.569 39.872C133.166 39.296 133.465 38.5387 133.465 37.6C133.465 36.896 133.209 36.32 132.697 35.872C132.206 35.4027 131.225 35.168 129.753 35.168H127.385C126.702 35.168 126.041 35.1147 125.401 35.008C124.761 34.9014 124.238 34.6774 123.833 34.336C123.427 33.9947 123.225 33.472 123.225 32.768C123.225 32.0427 123.523 31.3494 124.121 30.688C124.569 30.1753 125.301 29.6565 126.315 29.1317M127.278 29.184C126.948 29.1837 126.627 29.1662 126.315 29.1317M127.278 29.184C127.446 29.0874 127.621 28.9914 127.801 28.896L127.417 28.608C127.019 28.7832 126.651 28.9578 126.315 29.1317M126.315 29.1317C125.646 29.0574 125.021 28.9042 124.441 28.672C123.587 28.3094 122.915 27.7547 122.425 27.008C121.934 26.2614 121.689 25.3014 121.689 24.128C121.689 22.9547 121.934 21.9947 122.425 21.248C122.915 20.5014 123.587 19.9574 124.441 19.616C125.294 19.2534 126.243 19.072 127.289 19.072C128.355 19.072 129.305 19.2534 130.137 19.616C130.775 19.8714 131.312 20.2403 131.748 20.7226M132.165 21.2667C132.073 21.4118 131.984 21.5656 131.897 21.728L131.321 21.504C131.433 21.2315 131.575 20.9711 131.748 20.7226M132.165 21.2667C132.411 20.8783 132.673 20.5521 132.953 20.288C133.253 19.9881 133.709 19.7011 134.321 19.4272M131.748 20.7226C132.034 20.3098 132.404 19.9303 132.857 19.584C133.582 19.0294 134.339 18.752 135.129 18.752C135.683 18.752 136.131 18.912 136.473 19.232C136.814 19.5307 136.985 19.9894 136.985 20.608C136.985 21.2694 136.803 21.7387 136.441 22.016C136.099 22.272 135.747 22.4 135.385 22.4C135.065 22.4 134.766 22.2934 134.489 22.08C134.211 21.8454 134.051 21.4827 134.009 20.992C133.972 20.572 134.076 20.0504 134.321 19.4272M134.321 19.4272C134.362 19.3224 134.408 19.2146 134.457 19.104L134.873 19.2C134.677 19.2747 134.493 19.3505 134.321 19.4272ZM5.45397 31.6345L8.65992 31.3587L2.58678 27.9662L1.24176 34.8189L4.34294 31.7301L5.30394 31.6474M5.45397 31.6345L5.30394 31.6474M167.934 27.112C167.901 27.3883 167.876 27.687 167.858 28.008C167.837 28.392 167.826 28.776 167.826 29.16C167.826 30.6107 168.061 31.8587 168.53 32.904C169 33.9494 169.608 34.7494 170.354 35.304C171.122 35.8374 171.912 36.104 172.722 36.104C173.362 36.104 173.97 36.008 174.546 35.816C175.122 35.6027 175.656 35.2614 176.146 34.792C176.637 34.3227 177.064 33.6934 177.426 32.904L178.066 33.16C177.832 33.864 177.448 34.5467 176.914 35.208C176.381 35.8694 175.709 36.4134 174.898 36.84C174.088 37.2454 173.149 37.448 172.082 37.448C170.546 37.448 169.224 37.096 168.114 36.392C167.026 35.688 166.184 34.7174 165.586 33.48C165.01 32.2214 164.722 30.7814 164.722 29.16C164.722 27.2827 165.021 25.672 165.618 24.328C166.216 22.9627 167.058 21.9174 168.146 21.192C169.234 20.4454 170.504 20.072 171.954 20.072C173.832 20.072 175.293 20.648 176.338 21.8C177.405 22.9307 177.938 24.7014 177.938 27.112H167.934ZM167.934 27.112H166.642L166.61 26.504H167.883M167.934 27.112C167.941 27.0578 167.947 27.0045 167.954 26.952L167.858 26.824C167.866 26.7159 167.874 26.6092 167.883 26.504M167.883 26.504C168.054 24.5343 168.493 23.0836 169.202 22.152C169.97 21.1707 170.845 20.68 171.826 20.68C172.552 20.68 173.138 20.9467 173.586 21.48C174.056 22.0134 174.397 22.728 174.61 23.624C174.824 24.4987 174.909 25.4587 174.866 26.504H167.883ZM184.122 27.112C184.089 27.3883 184.064 27.687 184.046 28.008C184.024 28.392 184.014 28.776 184.014 29.16C184.014 30.6107 184.248 31.8587 184.718 32.904C185.187 33.9494 185.795 34.7494 186.542 35.304C187.31 35.8374 188.099 36.104 188.91 36.104C189.55 36.104 190.158 36.008 190.734 35.816C191.31 35.6027 191.843 35.2614 192.334 34.792C192.824 34.3227 193.251 33.6934 193.614 32.904L194.254 33.16C194.019 33.864 193.635 34.5467 193.102 35.208C192.568 35.8694 191.896 36.4134 191.086 36.84C190.275 37.2454 189.336 37.448 188.27 37.448C186.734 37.448 185.411 37.096 184.302 36.392C183.214 35.688 182.371 34.7174 181.774 33.48C181.198 32.2214 180.91 30.7814 180.91 29.16C180.91 27.2827 181.208 25.672 181.806 24.328C182.403 22.9627 183.246 21.9174 184.334 21.192C185.422 20.4454 186.691 20.072 188.142 20.072C190.019 20.072 191.48 20.648 192.526 21.8C193.592 22.9307 194.126 24.7014 194.126 27.112H184.122ZM184.122 27.112H182.83L182.798 26.504H184.071M184.122 27.112C184.128 27.0578 184.135 27.0045 184.142 26.952L184.046 26.824C184.053 26.7159 184.062 26.6092 184.071 26.504M184.071 26.504C184.241 24.5343 184.681 23.0836 185.39 22.152C186.158 21.1707 187.032 20.68 188.014 20.68C188.739 20.68 189.326 20.9467 189.774 21.48C190.243 22.0134 190.584 22.728 190.798 23.624C191.011 24.4987 191.096 25.4587 191.054 26.504H184.071ZM201.641 23.4921V20.168C201.172 20.3174 200.649 20.4347 200.073 20.52C199.519 20.584 198.932 20.616 198.313 20.616C197.673 20.616 197.012 20.584 196.329 20.52V21.192C197.268 21.192 197.908 21.4267 198.249 21.896C198.591 22.344 198.761 23.048 198.761 24.008V40.136C198.761 40.904 198.601 41.4267 198.281 41.704C197.961 41.9814 197.417 42.12 196.649 42.12V42.792C196.991 42.7707 197.481 42.7387 198.121 42.696C198.783 42.6747 199.444 42.664 200.105 42.664C201.044 42.664 201.929 42.6747 202.761 42.696C203.593 42.7387 204.244 42.7707 204.713 42.792V42.12C203.753 42.12 202.996 41.96 202.441 41.64C201.908 41.3414 201.641 40.7334 201.641 39.816V35.7028M201.641 23.4921C201.347 24.1701 201.145 24.9394 201.033 25.8L201.417 26.248C201.474 25.8258 201.549 25.4296 201.641 25.0596M201.641 23.4921C201.967 22.7415 202.404 22.1028 202.953 21.576C204.02 20.5734 205.289 20.072 206.761 20.072C207.892 20.072 208.905 20.3814 209.801 21C210.697 21.5974 211.401 22.4827 211.913 23.656C212.447 24.8294 212.713 26.28 212.713 28.008C212.713 29.16 212.575 30.3014 212.297 31.432C212.02 32.5414 211.583 33.5547 210.985 34.472C210.409 35.368 209.652 36.0934 208.713 36.648C207.796 37.1814 206.687 37.448 205.385 37.448C204.383 37.448 203.508 37.2134 202.761 36.744C202.288 36.4378 201.915 36.0907 201.641 35.7028M201.641 23.4921V25.0596M201.641 35.7028C201.496 35.4962 201.378 35.2779 201.289 35.048L201.609 34.6C201.62 34.621 201.63 34.6419 201.641 34.6627M201.641 35.7028V34.6627M201.641 34.6627V25.0596M201.641 34.6627C201.938 35.2325 202.354 35.7129 202.889 36.104C203.465 36.5094 204.18 36.712 205.033 36.712C206.228 36.712 207.156 36.3387 207.817 35.592C208.479 34.8454 208.937 33.8534 209.193 32.616C209.471 31.3574 209.609 29.9707 209.609 28.456C209.609 26.7494 209.471 25.352 209.193 24.264C208.916 23.176 208.5 22.3654 207.945 21.832C207.391 21.2987 206.708 21.032 205.897 21.032C204.852 21.032 203.903 21.4694 203.049 22.344C202.402 22.9914 201.933 23.8966 201.641 25.0596M54.0802 13.344C57.8989 13.344 60.7362 14.304 62.5922 16.224C64.4482 18.1227 65.3762 20.8534 65.3762 24.416C65.3762 26.7414 64.9176 28.7787 64.0002 30.528C63.1042 32.256 61.7922 33.6 60.0642 34.56C58.3362 35.52 56.2456 36 53.7922 36C53.4722 36 53.0456 35.9894 52.5122 35.968C51.9789 35.9467 51.4242 35.936 50.8482 35.936C50.2936 35.9147 49.7816 35.904 49.3122 35.904C48.5656 35.904 47.8296 35.9147 47.1042 35.936C46.3789 35.936 45.7922 35.9574 45.3442 36V35.36C46.0696 35.3174 46.6136 35.232 46.9762 35.104C47.3602 34.976 47.6162 34.72 47.7442 34.336C47.8722 33.952 47.9362 33.376 47.9362 32.608V16.736C47.9362 15.9467 47.8722 15.3707 47.7442 15.008C47.6162 14.624 47.3602 14.368 46.9762 14.24C46.6136 14.0907 46.0696 14.0054 45.3442 13.984V13.344C45.7922 13.3654 46.3789 13.3974 47.1042 13.44C47.8296 13.4614 48.5442 13.4614 49.2482 13.44C49.9949 13.4187 50.8376 13.3974 51.7762 13.376C52.7149 13.3547 53.4829 13.344 54.0802 13.344ZM53.2802 13.92C52.2989 13.92 51.6589 14.1014 51.3602 14.464C51.0616 14.8267 50.9122 15.5627 50.9122 16.672V32.672C50.9122 33.7814 51.0616 34.5174 51.3602 34.88C51.6802 35.2427 52.3309 35.424 53.3122 35.424C55.6376 35.424 57.4402 35.008 58.7202 34.176C60.0002 33.3227 60.8962 32.0854 61.4082 30.464C61.9202 28.8427 62.1762 26.8694 62.1762 24.544C62.1762 22.1547 61.8882 20.1814 61.3122 18.624C60.7576 17.0454 59.8296 15.872 58.5282 15.104C57.2482 14.3147 55.4989 13.92 53.2802 13.92ZM71.7012 11.52C72.2559 11.52 72.7359 11.7227 73.1412 12.128C73.5466 12.5334 73.7492 13.0134 73.7492 13.568C73.7492 14.1227 73.5466 14.6027 73.1412 15.008C72.7359 15.4134 72.2559 15.616 71.7012 15.616C71.1466 15.616 70.6666 15.4134 70.2612 15.008C69.8559 14.6027 69.6532 14.1227 69.6532 13.568C69.6532 13.0134 69.8559 12.5334 70.2612 12.128C70.6666 11.7227 71.1466 11.52 71.7012 11.52ZM73.3652 19.168V33.024C73.3652 33.92 73.5466 34.528 73.9092 34.848C74.2932 35.168 74.9226 35.328 75.7972 35.328V36C75.4346 35.9787 74.8799 35.9574 74.1332 35.936C73.4079 35.8934 72.6719 35.872 71.9252 35.872C71.1999 35.872 70.4639 35.8934 69.7172 35.936C68.9706 35.9574 68.4159 35.9787 68.0532 36V35.328C68.9279 35.328 69.5466 35.168 69.9092 34.848C70.2932 34.528 70.4852 33.92 70.4852 33.024V23.008C70.4852 22.048 70.3146 21.344 69.9732 20.896C69.6319 20.4267 68.9919 20.192 68.0532 20.192V19.52C68.7359 19.584 69.3972 19.616 70.0372 19.616C70.6559 19.616 71.2426 19.584 71.7972 19.52C72.3732 19.4347 72.8959 19.3174 73.3652 19.168ZM96.7325 11.52C97.2871 11.52 97.7672 11.7227 98.1725 12.128C98.5778 12.5334 98.7805 13.0134 98.7805 13.568C98.7805 14.1227 98.5778 14.6027 98.1725 15.008C97.7672 15.4134 97.2871 15.616 96.7325 15.616C96.1778 15.616 95.6978 15.4134 95.2925 15.008C94.8872 14.6027 94.6845 14.1227 94.6845 13.568C94.6845 13.0134 94.8872 12.5334 95.2925 12.128C95.6978 11.7227 96.1778 11.52 96.7325 11.52ZM98.3965 19.168V33.024C98.3965 33.92 98.5778 34.528 98.9405 34.848C99.3245 35.168 99.9538 35.328 100.828 35.328V36C100.466 35.9787 99.9112 35.9574 99.1645 35.936C98.4392 35.8934 97.7032 35.872 96.9565 35.872C96.2312 35.872 95.4952 35.8934 94.7485 35.936C94.0018 35.9574 93.4472 35.9787 93.0845 36V35.328C93.9592 35.328 94.5778 35.168 94.9405 34.848C95.3245 34.528 95.5165 33.92 95.5165 33.024V23.008C95.5165 22.048 95.3458 21.344 95.0045 20.896C94.6632 20.4267 94.0232 20.192 93.0845 20.192V19.52C93.7672 19.584 94.4285 19.616 95.0685 19.616C95.6872 19.616 96.2738 19.584 96.8285 19.52C97.4045 19.4347 97.9272 19.3174 98.3965 19.168ZM113.211 19.072C114.022 19.072 114.694 19.1787 115.227 19.392C115.782 19.6054 116.241 19.904 116.603 20.288C117.009 20.7147 117.297 21.248 117.467 21.888C117.638 22.528 117.723 23.392 117.723 24.48V33.024C117.723 33.92 117.905 34.528 118.267 34.848C118.651 35.168 119.281 35.328 120.155 35.328V36C119.793 35.9787 119.238 35.9574 118.491 35.936C117.745 35.8934 117.019 35.872 116.315 35.872C115.611 35.872 114.918 35.8934 114.235 35.936C113.574 35.9574 113.073 35.9787 112.731 36V35.328C113.499 35.328 114.043 35.168 114.363 34.848C114.683 34.528 114.843 33.92 114.843 33.024V23.776C114.843 23.1147 114.79 22.5067 114.683 21.952C114.577 21.3974 114.331 20.9494 113.947 20.608C113.585 20.2667 113.019 20.096 112.251 20.096C111.355 20.096 110.566 20.352 109.883 20.864C109.222 21.376 108.699 22.08 108.315 22.976C107.953 23.8507 107.771 24.832 107.771 25.92V33.024C107.771 33.92 107.931 34.528 108.251 34.848C108.571 35.168 109.115 35.328 109.883 35.328V36C109.542 35.9787 109.03 35.9574 108.347 35.936C107.686 35.8934 107.003 35.872 106.299 35.872C105.595 35.872 104.87 35.8934 104.123 35.936C103.377 35.9574 102.822 35.9787 102.459 36V35.328C103.334 35.328 103.953 35.168 104.315 34.848C104.699 34.528 104.891 33.92 104.891 33.024V23.008C104.891 22.048 104.721 21.344 104.379 20.896C104.038 20.4267 103.398 20.192 102.459 20.192V19.52C103.142 19.584 103.803 19.616 104.443 19.616C105.062 19.616 105.649 19.584 106.203 19.52C106.779 19.4347 107.302 19.3174 107.771 19.168V22.944C108.326 21.4934 109.094 20.4907 110.075 19.936C111.078 19.36 112.123 19.072 113.211 19.072ZM127.289 28.608C128.099 28.608 128.729 28.288 129.177 27.648C129.646 27.008 129.881 25.8347 129.881 24.128C129.881 22.4214 129.646 21.248 129.177 20.608C128.729 19.968 128.099 19.648 127.289 19.648C126.499 19.648 125.87 19.968 125.401 20.608C124.931 21.248 124.697 22.4214 124.697 24.128C124.697 25.8347 124.931 27.008 125.401 27.648C125.87 28.288 126.499 28.608 127.289 28.608ZM150.205 14.344C154.024 14.344 156.861 15.304 158.717 17.224C160.573 19.1227 161.501 21.8534 161.501 25.416C161.501 27.7414 161.043 29.7787 160.125 31.528C159.229 33.256 157.917 34.6 156.189 35.56C154.461 36.52 152.371 37 149.917 37C149.597 37 149.171 36.9894 148.637 36.968C148.104 36.9467 147.549 36.936 146.973 36.936C146.419 36.9147 145.907 36.904 145.437 36.904C144.691 36.904 143.955 36.9147 143.229 36.936C142.504 36.936 141.917 36.9574 141.469 37V36.36C142.195 36.3174 142.739 36.232 143.101 36.104C143.485 35.976 143.741 35.72 143.869 35.336C143.997 34.952 144.061 34.376 144.061 33.608V17.736C144.061 16.9467 143.997 16.3707 143.869 16.008C143.741 15.624 143.485 15.368 143.101 15.24C142.739 15.0907 142.195 15.0054 141.469 14.984V14.344C141.917 14.3654 142.504 14.3974 143.229 14.44C143.955 14.4614 144.669 14.4614 145.373 14.44C146.12 14.4187 146.963 14.3974 147.901 14.376C148.84 14.3547 149.608 14.344 150.205 14.344ZM149.405 14.92C148.424 14.92 147.784 15.1014 147.485 15.464C147.187 15.8267 147.037 16.5627 147.037 17.672V33.672C147.037 34.7814 147.187 35.5174 147.485 35.88C147.805 36.2427 148.456 36.424 149.437 36.424C151.763 36.424 153.565 36.008 154.845 35.176C156.125 34.3227 157.021 33.0854 157.533 31.464C158.045 29.8427 158.301 27.8694 158.301 25.544C158.301 23.1547 158.013 21.1814 157.437 19.624C156.883 18.0454 155.955 16.872 154.653 16.104C153.373 15.3147 151.624 14.92 149.405 14.92ZM26.6129 8.50316C26.6129 11.6525 24.0598 14.2056 20.9105 14.2056C17.7611 14.2056 15.2081 11.6525 15.2081 8.50316C15.2081 5.35381 17.7611 2.80076 20.9105 2.80076C24.0598 2.80076 26.6129 5.35381 26.6129 8.50316ZM26.4628 8.50316C26.4628 11.5696 23.9769 14.0555 20.9105 14.0555C17.844 14.0555 15.3581 11.5696 15.3581 8.50316C15.3581 5.43669 17.844 2.95082 20.9105 2.95082C23.9769 2.95082 26.4628 5.43669 26.4628 8.50316ZM40.7986 35.0635L40.0557 28.1203L33.7103 30.97L37.9784 31.7164L40.7986 35.0635ZM33.8159 20.3582C33.8159 21.9328 32.5394 23.2094 30.9647 23.2094C29.39 23.2094 28.1135 21.9328 28.1135 20.3582C28.1135 18.7835 29.39 17.507 30.9647 17.507C32.5394 17.507 33.8159 18.7835 33.8159 20.3582ZM13.7074 20.3582C13.7074 21.9328 12.4309 23.2094 10.8562 23.2094C9.28155 23.2094 8.00503 21.9328 8.00503 20.3582C8.00503 18.7835 9.28155 17.507 10.8562 17.507C12.4309 17.507 13.7074 18.7835 13.7074 20.3582Z" stroke="white"/>
</svg>
