<svg width="120" height="132" viewBox="0 0 120 132" fill="none" xmlns="http://www.w3.org/2000/svg">
<g opacity="0.6">
<path fill-rule="evenodd" clip-rule="evenodd" d="M73.8162 43.9974C85.5499 47.2756 97.7194 40.4211 100.998 28.6874C104.276 16.9537 97.4213 4.78421 85.6876 1.50602C73.9539 -1.77217 61.7844 5.08237 58.5062 16.816C55.228 28.5497 62.0825 40.7192 73.8162 43.9974ZM73.6951 44.431C75.989 45.0719 78.2993 45.3333 80.559 45.2528C90.0935 44.9132 98.727 38.4877 101.431 28.8085C104.776 16.8354 97.7819 4.41752 85.8087 1.07243C73.8356 -2.27265 61.4177 4.72177 58.0726 16.6949C55.2746 26.7098 59.7106 37.0358 68.2432 42.1032C69.9117 43.0941 71.7368 43.8839 73.6951 44.431Z" fill="#0E0F0F"/>
<path fill-rule="evenodd" clip-rule="evenodd" d="M75.2699 38.7944C84.13 41.2698 93.3192 36.0939 95.7946 27.2338C98.27 18.3736 93.0941 9.18442 84.234 6.70905C75.3738 4.23369 66.1846 9.40956 63.7092 18.2697C61.2339 27.1298 66.4097 36.319 75.2699 38.7944ZM75.1487 39.228C84.2483 41.7703 93.6859 36.4545 96.2282 27.3549C98.7704 18.2553 93.4547 8.81773 84.3551 6.27547C75.2555 3.7332 65.8179 9.04896 63.2756 18.1485C60.7334 27.2481 66.0491 36.6857 75.1487 39.228Z" fill="#0E0F0F"/>
<path fill-rule="evenodd" clip-rule="evenodd" d="M67.9206 42.5265C67.8066 42.224 67.6772 41.8805 67.5545 41.4334L67.9886 41.3142C68.0744 41.6267 68.16 41.8764 68.2432 42.1032C68.2737 42.1863 68.3039 42.2664 68.3337 42.3453C68.3851 42.4817 68.4353 42.6146 68.4836 42.7543C68.6354 43.1931 68.7508 43.6541 68.7871 44.3882C68.845 45.5615 68.5286 47.0295 68.3647 47.6161L67.335 51.3016L67.2139 51.7352L64.9123 59.9733L64.7912 60.4069L53.2226 101.814L53.2203 101.814L52.789 101.693L64.4787 59.8521L66.7803 51.614L67.9311 47.4949C68.0902 46.9253 68.3918 45.5121 68.3374 44.4104C68.3035 43.7225 68.1973 43.3036 68.0582 42.9015C68.0164 42.7808 67.9699 42.6575 67.9206 42.5265Z" fill="#0E0F0F"/>
<path fill-rule="evenodd" clip-rule="evenodd" d="M80.563 45.7666C80.8759 45.5942 81.2176 45.4057 81.6083 45.1643L81.3717 44.7813C81.0833 44.9595 80.8146 45.1112 80.559 45.2528C80.5032 45.2837 80.448 45.3141 80.3934 45.3442C79.6042 45.7796 78.9312 46.1508 78.1684 46.9765C77.3097 47.9062 76.7684 49.3249 76.6028 49.9177L75.5731 53.6032L75.452 54.0367L73.1504 62.2749L73.0293 62.7085L61.4607 104.116L61.463 104.117L61.8943 104.237L73.584 62.396L75.8856 54.1579L77.0364 50.0388C77.1938 49.4754 77.7105 48.1358 78.4991 47.282C79.2096 46.5129 79.8004 46.1871 80.563 45.7666Z" fill="#0E0F0F"/>
<path fill-rule="evenodd" clip-rule="evenodd" d="M30.7438 98.1254C28.2464 95.944 26.0675 94.1651 24.2032 92.6432C23.7173 92.2465 23.2527 91.8672 22.8095 91.5028C20.6606 89.7363 19.0209 88.3256 17.8577 86.9648C16.6995 85.6097 16.0225 84.3136 15.7911 82.7775C15.5587 81.2349 15.7723 79.4282 16.4376 77.0469L16.004 76.9258C15.9532 77.1074 15.905 77.286 15.8593 77.4617C15.299 79.6156 15.1184 81.3345 15.3459 82.8446C15.5929 84.4845 16.3179 85.8561 17.5155 87.2573C18.7082 88.6527 20.3783 90.087 22.5236 91.8506C22.9685 92.2163 23.4342 92.5965 23.9209 92.9939C25.7857 94.5163 27.9588 96.2904 30.4516 98.468L30.4556 98.4715L30.4598 98.4747C34.1019 101.366 39.0767 104.592 43.4919 105.889C45.6987 106.538 47.7965 106.715 49.5251 106.095C51.2178 105.489 52.5188 104.133 53.2203 101.814C53.2418 101.743 53.2628 101.67 53.2832 101.598L52.8496 101.476C52.1965 103.814 50.9563 105.104 49.3733 105.671C47.7743 106.244 45.7856 106.094 43.6189 105.458C39.2887 104.185 34.3703 101.004 30.7438 98.1254Z" fill="#0E0F0F"/>
<path fill-rule="evenodd" clip-rule="evenodd" d="M82.5963 112.613C85.8627 112.042 88.6482 111.65 91.0313 111.314C91.6525 111.227 92.2463 111.143 92.8142 111.062C95.5676 110.664 97.701 110.308 99.4011 109.747C101.094 109.188 102.345 108.431 103.339 107.237C104.337 106.038 105.091 104.382 105.756 102.001L106.19 102.122L106.19 102.123C105.517 104.531 104.742 106.256 103.685 107.525C102.624 108.8 101.293 109.597 99.5422 110.175C97.7989 110.75 95.6273 111.111 92.8785 111.507C92.3084 111.589 91.7131 111.673 91.0909 111.761L91.0904 111.761C88.7066 112.096 85.9289 112.487 82.6686 113.057L82.6634 113.058L82.6581 113.059C78.0449 113.644 72.1186 113.824 67.6699 112.645C65.4465 112.056 63.561 111.12 62.4037 109.694C61.2705 108.298 60.8606 106.464 61.463 104.117C61.4815 104.045 61.5008 103.972 61.5212 103.9L61.9547 104.021C61.3016 106.359 61.6935 108.105 62.7533 109.41C63.8237 110.729 65.6021 111.632 67.7852 112.21C72.1481 113.366 78.003 113.195 82.5963 112.613Z" fill="#0E0F0F"/>
<path d="M10.9738 63.4392L27.2646 79.6151L15.8593 77.4617L13.2102 76.9615L8.33901 79.6923L0.615214 84.0223L10.9738 63.4392Z" fill="#0E0F0F"/>
<path fill-rule="evenodd" clip-rule="evenodd" d="M13.2102 76.9615L15.8593 77.4617L27.2646 79.6151L10.9738 63.4392L0.615214 84.0223L8.33901 79.6923L13.2102 76.9615ZM1.67908 82.9098L13.1328 76.4888L25.9059 78.9004L11.097 64.1959L1.67908 82.9098Z" fill="#0E0F0F"/>
<path d="M119.78 94.3495L97.0806 97.7726L106.19 102.123L109.987 103.937L111.669 107.626L115.976 117.075L119.78 94.3495Z" fill="#0E0F0F"/>
<path fill-rule="evenodd" clip-rule="evenodd" d="M109.987 103.937L106.19 102.123L97.0806 97.7726L119.78 94.3495L115.976 117.075L111.669 107.626L109.987 103.937ZM115.775 115.548L110.329 103.601L98.599 97.9989L119.234 94.8872L115.775 115.548Z" fill="#0E0F0F"/>
<path fill-rule="evenodd" clip-rule="evenodd" d="M108.581 112.086C110.195 110.565 111.262 109.065 111.664 107.625L111.669 107.626L112.098 107.746C111.664 109.299 110.531 110.868 108.889 112.413C107.245 113.962 105.074 115.503 102.534 116.999C97.4558 119.991 90.8811 122.815 84.0433 125.157C77.2047 127.5 70.0944 129.364 63.9414 130.433C60.8649 130.968 58.0244 131.304 55.5749 131.401C53.1288 131.499 51.0581 131.359 49.5284 130.931C46.4831 130.081 42.1595 127.19 37.4587 123.181C32.7484 119.165 27.6306 114.002 22.9931 108.57C18.3562 103.138 14.1938 97.4315 11.3985 92.3273C10.001 89.7754 8.94174 87.3679 8.33728 85.2164C7.73376 83.0682 7.57753 81.154 8.01147 79.6008L8.33901 79.6923L8.44505 79.7219C8.04271 81.162 8.17764 82.9837 8.77069 85.0946C9.36279 87.2021 10.4055 89.5769 11.7934 92.1111C14.5688 97.1792 18.7106 102.86 23.3355 108.277C27.9596 113.694 33.0609 118.84 37.7508 122.839C42.4503 126.846 46.7083 129.676 49.6495 130.498C51.1131 130.907 53.1294 131.048 55.557 130.952C57.9811 130.855 60.801 130.522 63.8643 129.989C69.9908 128.925 77.0779 127.067 83.8974 124.731C90.7178 122.395 97.2621 119.583 102.306 116.611C104.828 115.125 106.969 113.603 108.581 112.086Z" fill="#0E0F0F"/>
<path fill-rule="evenodd" clip-rule="evenodd" d="M93.0122 58.9428L92.7503 58.8696L75.8856 54.1579L75.452 54.0367L67.2139 51.7352L66.7803 51.614L49.9156 46.9023L49.6536 46.8291L49.7748 46.3955L67.335 51.3016L75.5731 53.6032L93.1334 58.5092L93.0122 58.9428ZM47.352 55.0673L47.614 55.1404L64.4787 59.8521L64.9123 59.9733L73.1504 62.2749L73.584 62.396L90.4487 67.1077L90.7106 67.1809L90.5895 67.6145L73.0293 62.7085L64.7912 60.4069L47.2309 55.5008L47.352 55.0673Z" fill="#0E0F0F"/>
<path d="M107.904 67.5439C106.566 72.3331 101.599 75.1309 96.8097 73.7929C93.5112 72.8713 91.1574 70.2284 90.4487 67.1077C90.1284 65.6973 90.1442 64.1892 90.5607 62.6984C90.9772 61.2076 91.7453 59.9098 92.7503 58.8696C94.9738 56.5681 98.3567 55.5279 101.655 56.4494C106.444 57.7875 109.242 62.7546 107.904 67.5439Z" fill="#0E0F0F"/>
<path fill-rule="evenodd" clip-rule="evenodd" d="M96.9308 73.3593C101.481 74.6304 106.199 71.9725 107.471 67.4227C108.742 62.8729 106.084 58.1542 101.534 56.883C96.9842 55.6119 92.2654 58.2698 90.9943 62.8196C89.7231 67.3694 92.381 72.0881 96.9308 73.3593ZM96.8097 73.7929C101.599 75.1309 106.566 72.3331 107.904 67.5439C109.242 62.7546 106.444 57.7875 101.655 56.4494C98.3567 55.5279 94.9738 56.5681 92.7503 58.8696C91.7453 59.9098 90.9772 61.2076 90.5607 62.6984C90.1442 64.1892 90.1284 65.6973 90.4487 67.1077C91.1574 70.2284 93.5112 72.8713 96.8097 73.7929Z" fill="#0E0F0F"/>
<path d="M49.8036 51.3116C49.3871 52.8024 48.6189 54.1002 47.614 55.1404C45.3904 57.4419 42.0076 58.4821 38.7092 57.5606C33.9199 56.2226 31.1221 51.2554 32.4602 46.4661C33.7982 41.6769 38.7654 38.8791 43.5546 40.2172C46.8531 41.1387 49.2069 43.7816 49.9156 46.9023C50.2359 48.3128 50.2201 49.8208 49.8036 51.3116Z" fill="#0E0F0F"/>
<path fill-rule="evenodd" clip-rule="evenodd" d="M38.8303 57.127C43.3801 58.3981 48.0989 55.7403 49.37 51.1905C50.6411 46.6407 47.9833 41.9219 43.4335 40.6507C38.8837 39.3796 34.1649 42.0375 32.8938 46.5873C31.6226 51.1371 34.2805 55.8559 38.8303 57.127ZM38.7092 57.5606C42.0076 58.4821 45.3904 57.4419 47.614 55.1404C48.6189 54.1002 49.3871 52.8024 49.8036 51.3116C50.2201 49.8208 50.2359 48.3128 49.9156 46.9023C49.2069 43.7816 46.8531 41.1387 43.5546 40.2172C38.7654 38.8791 33.7982 41.6769 32.4602 46.4661C31.1221 51.2554 33.9199 56.2226 38.7092 57.5606Z" fill="#0E0F0F"/>
<path d="M64.7912 60.4069L53.2226 101.814L53.2203 101.814C52.5188 104.133 51.2178 105.489 49.5251 106.095C47.7965 106.715 45.6987 106.538 43.4919 105.889C39.0767 104.592 34.1019 101.366 30.4598 98.4747L30.4556 98.4715L30.4516 98.468C27.9588 96.2904 25.7857 94.5163 23.9209 92.9939C23.4342 92.5965 22.9685 92.2163 22.5236 91.8506C20.3783 90.087 18.7082 88.6527 17.5155 87.2573C16.3179 85.8561 15.5929 84.4845 15.3459 82.8446C15.1184 81.3345 15.299 79.6156 15.8593 77.4617L13.2102 76.9615L8.33901 79.6923L8.44505 79.7219C8.04271 81.162 8.17764 82.9837 8.77069 85.0946C9.36279 87.2021 10.4055 89.5769 11.7934 92.1111C14.5688 97.1792 18.7106 102.86 23.3355 108.277C27.9596 113.694 33.0609 118.84 37.7508 122.839C42.4503 126.846 46.7083 129.676 49.6495 130.498C51.1131 130.907 53.1294 131.048 55.557 130.952C57.9811 130.855 60.801 130.522 63.8643 129.989C69.9908 128.925 77.0779 127.067 83.8974 124.731C90.7178 122.395 97.2621 119.583 102.306 116.611C104.828 115.125 106.969 113.603 108.581 112.086C110.195 110.565 111.262 109.065 111.664 107.625L111.669 107.626L109.987 103.937L106.19 102.123C105.517 104.531 104.742 106.256 103.685 107.525C102.624 108.8 101.293 109.597 99.5422 110.175C97.7989 110.75 95.6273 111.111 92.8785 111.507C92.3084 111.589 91.7131 111.673 91.0909 111.761L91.0904 111.761C88.7066 112.096 85.9289 112.487 82.6686 113.057L82.6634 113.058L82.6581 113.059C78.0449 113.644 72.1186 113.824 67.6699 112.645C65.4465 112.056 63.561 111.12 62.4037 109.694C61.2705 108.298 60.8606 106.464 61.463 104.117L61.4607 104.116L61.5212 103.9L73.0293 62.7085L64.7912 60.4069Z" fill="#0E0F0F"/>
<path d="M75.452 54.0367L67.2139 51.7352L64.9123 59.9733L73.1504 62.2749L75.452 54.0367Z" fill="#0E0F0F"/>
<path d="M64.4787 59.8521L66.7803 51.614L49.9156 46.9023C50.2359 48.3128 50.2201 49.8208 49.8036 51.3116C49.3871 52.8024 48.6189 54.1002 47.614 55.1404L64.4787 59.8521Z" fill="#0E0F0F"/>
<path d="M75.8856 54.1579L73.584 62.396L90.4487 67.1077C90.1284 65.6973 90.1442 64.1892 90.5607 62.6984C90.9772 61.2076 91.7453 59.9098 92.7503 58.8696L75.8856 54.1579Z" fill="#0E0F0F"/>
<path d="M80.559 45.2528C78.2993 45.3333 75.989 45.0719 73.6951 44.431C71.7368 43.8839 69.9117 43.0941 68.2432 42.1032C68.2737 42.1863 68.3039 42.2664 68.3337 42.3453C68.3851 42.4817 68.4353 42.6146 68.4836 42.7543C68.6354 43.1931 68.7508 43.6541 68.7871 44.3882C68.845 45.5615 68.5286 47.0295 68.3647 47.6161L67.335 51.3016L75.5731 53.6032L76.6028 49.9177C76.7684 49.3249 77.3097 47.9062 78.1684 46.9765C78.9312 46.1508 79.6042 45.7796 80.3934 45.3442C80.448 45.3141 80.5032 45.2837 80.559 45.2528Z" fill="#0E0F0F"/>
<path fill-rule="evenodd" clip-rule="evenodd" d="M80.559 45.2528C90.0935 44.9132 98.727 38.4877 101.431 28.8085C104.776 16.8354 97.7819 4.41752 85.8087 1.07243C73.8356 -2.27265 61.4177 4.72177 58.0726 16.6949C55.2746 26.7098 59.7106 37.0358 68.2432 42.1032C69.9117 43.0941 71.7368 43.8839 73.6951 44.431C75.989 45.0719 78.2993 45.3333 80.559 45.2528ZM75.2699 38.7944C84.13 41.2698 93.3192 36.0939 95.7946 27.2338C98.27 18.3736 93.0941 9.18442 84.234 6.70905C75.3738 4.23369 66.1846 9.40956 63.7092 18.2697C61.2339 27.1298 66.4097 36.319 75.2699 38.7944Z" fill="#0E0F0F"/>
</g>
</svg>
